<?xml version="1.0" standalone="no"?>
<!DOCTYPE svg PUBLIC "-//W3C//DTD SVG 20010904//EN"
 "http://www.w3.org/TR/2001/REC-SVG-20010904/DTD/svg10.dtd">
<svg version="1.0" xmlns="http://www.w3.org/2000/svg"
 width="550.000000pt" height="550.000000pt" viewBox="0 0 550.000000 550.000000"
 preserveAspectRatio="xMidYMid meet">
<metadata>
Created by potrace 1.14, written by Peter Selinger 2001-2017
</metadata>
<g transform="translate(0.000000,550.000000) scale(0.100000,-0.100000)"
fill="#000000" stroke="none">
<path d="M2526 5483 c-1 -1 -30 -5 -65 -9 -81 -8 -84 -8 -98 -17 -6 -4 -14 -3
-18 3 -4 6 -13 7 -23 1 -9 -5 -35 -11 -57 -15 -36 -5 -70 -11 -115 -21 -8 -2
-15 -4 -15 -6 0 -1 -34 -8 -62 -11 -7 -1 -13 -5 -13 -10 0 -5 -4 -7 -9 -4 -4
3 -23 0 -42 -6 -39 -13 -62 -19 -69 -19 -3 -1 -11 -5 -17 -11 -7 -6 -13 -8
-13 -5 0 8 -92 -24 -198 -69 -48 -20 -99 -41 -114 -48 -16 -6 -28 -14 -28 -18
0 -5 -5 -8 -11 -8 -16 0 -83 -32 -91 -44 -4 -6 -8 -7 -8 -2 0 4 -15 -3 -34
-18 -19 -14 -40 -26 -46 -26 -6 0 -18 -7 -27 -15 -8 -8 -18 -13 -23 -10 -4 3
-11 -2 -14 -11 -4 -9 -9 -14 -12 -11 -4 3 -12 1 -20 -6 -32 -29 -44 -37 -44
-32 0 4 -6 0 -14 -7 -7 -7 -24 -20 -36 -28 -12 -8 -28 -20 -34 -26 -6 -5 -19
-13 -29 -17 -9 -3 -17 -11 -17 -17 0 -5 -6 -10 -12 -10 -7 0 -29 -15 -49 -33
-69 -60 -101 -87 -105 -87 -10 0 -244 -239 -244 -250 0 -6 -4 -8 -10 -5 -5 3
-10 2 -10 -3 0 -8 -19 -33 -53 -72 -7 -8 -28 -35 -47 -60 -18 -25 -40 -51 -49
-57 -8 -7 -11 -13 -7 -13 4 0 1 -7 -6 -15 -31 -34 -38 -45 -31 -45 4 -1 -3
-10 -17 -21 -14 -12 -24 -23 -22 -25 2 -4 -18 -40 -49 -86 -11 -15 -19 -31
-19 -36 0 -5 -7 -15 -15 -22 -8 -7 -12 -16 -9 -21 3 -5 0 -9 -5 -9 -6 0 -11
-7 -11 -15 0 -8 -5 -15 -11 -15 -5 0 -8 -4 -4 -10 3 -5 -3 -18 -14 -29 -11
-11 -17 -21 -15 -24 2 -2 -9 -30 -25 -61 -17 -31 -32 -64 -33 -74 -2 -9 -6
-19 -9 -22 -6 -5 -79 -189 -83 -212 -2 -7 -5 -20 -9 -28 -18 -50 -56 -204 -51
-211 3 -5 0 -9 -7 -9 -7 0 -10 -3 -7 -6 4 -3 2 -19 -3 -36 -9 -35 -22 -104
-23 -130 0 -10 -3 -18 -6 -18 -3 0 -6 -12 -6 -27 -1 -16 -4 -53 -8 -83 -18
-164 -27 -420 -15 -420 3 0 4 -11 1 -25 -2 -14 2 -33 9 -42 10 -12 10 -15 1
-9 -9 6 -11 0 -8 -21 3 -15 8 -64 11 -107 3 -44 9 -84 12 -90 4 -5 8 -24 9
-40 4 -37 12 -90 15 -93 1 -2 2 -11 3 -20 1 -10 4 -22 7 -28 4 -5 5 -18 4 -27
-2 -10 0 -18 4 -18 4 0 8 -14 9 -31 1 -17 7 -39 12 -49 6 -10 10 -29 10 -42 0
-13 4 -28 9 -33 4 -6 14 -32 21 -60 14 -51 62 -176 104 -269 12 -28 29 -66 37
-84 8 -17 17 -32 20 -32 6 0 23 -51 19 -59 -1 -2 2 -7 7 -10 12 -8 83 -129 83
-142 0 -5 5 -9 10 -9 6 0 10 -7 10 -15 0 -8 5 -15 11 -15 5 0 7 -5 4 -10 -3
-6 1 -13 9 -16 9 -3 16 -11 16 -16 0 -6 13 -27 30 -48 16 -21 30 -41 30 -44 0
-3 9 -16 19 -28 36 -43 106 -131 116 -146 17 -27 270 -277 310 -308 22 -16 47
-36 56 -44 10 -8 31 -26 49 -40 17 -14 38 -31 45 -38 8 -7 15 -11 15 -7 0 4 7
-1 17 -10 19 -20 115 -83 153 -102 8 -4 20 -12 27 -17 25 -22 39 -31 53 -34 8
-2 18 -8 21 -14 3 -5 8 -9 10 -8 6 2 43 -13 49 -19 9 -11 92 -51 104 -51 7 0
18 -6 24 -12 7 -7 16 -13 20 -13 6 -1 46 -18 107 -47 12 -5 27 -10 35 -11 8
-2 20 -6 27 -10 17 -11 153 -56 153 -51 0 3 9 0 21 -6 20 -11 46 -19 84 -25
11 -2 21 -4 23 -5 1 -2 7 -4 12 -5 6 -1 11 -4 13 -5 2 -3 28 -7 65 -12 12 -1
22 -5 22 -8 0 -3 8 -6 18 -7 18 -2 75 -9 132 -18 146 -23 206 -27 420 -28 217
-1 281 3 292 18 5 6 8 5 8 -3 0 -7 5 -10 10 -7 6 4 29 8 53 11 51 5 92 11 132
19 17 4 39 8 50 9 12 1 27 6 34 10 7 4 15 5 18 2 3 -3 13 -1 22 3 9 5 32 11
51 15 19 3 54 12 78 20 23 8 43 15 45 15 9 -2 64 16 75 24 6 5 12 7 12 4 0 -4
20 2 44 13 24 10 47 16 50 13 3 -4 6 -1 6 5 0 7 3 11 8 10 8 -1 27 5 100 38
28 12 52 20 52 17 0 -3 6 0 14 6 25 21 104 59 110 54 3 -4 6 -1 6 6 0 7 5 9
10 6 6 -3 10 -1 10 4 0 6 5 11 11 11 6 0 24 9 40 21 16 11 29 17 29 12 0 -4 4
-3 8 4 4 6 14 13 21 15 8 2 22 10 32 18 39 33 47 39 51 34 3 -2 17 7 32 21 14
13 28 23 29 22 1 -1 27 16 57 38 30 22 62 45 71 50 25 15 96 75 150 126 27 26
49 44 49 41 0 -2 7 1 15 8 8 7 12 17 8 24 -3 6 -3 8 1 4 10 -8 216 203 216
221 0 3 9 12 20 19 11 7 20 17 20 23 0 7 10 20 22 30 11 11 17 19 12 19 -5 0
-4 4 1 8 18 13 84 99 87 113 2 8 13 23 24 35 12 11 25 31 29 42 3 12 11 22 17
22 6 0 9 3 5 6 -3 4 6 25 22 48 45 67 184 353 195 401 1 6 7 19 12 30 14 27
49 138 46 148 -1 4 2 7 7 7 5 0 8 8 6 17 -1 10 2 24 8 31 5 6 7 12 3 12 -3 0
-1 12 5 28 11 28 16 47 25 92 2 14 7 32 10 40 3 8 8 33 11 55 3 22 10 46 15
53 7 8 7 12 -1 12 -7 0 -9 5 -5 12 8 12 13 42 18 103 2 22 5 40 6 40 7 0 14
144 14 295 1 215 -4 320 -16 320 -5 0 -4 9 2 20 6 11 7 20 2 20 -5 0 -9 12 -9
28 -2 35 -19 137 -23 137 -1 0 -3 14 -5 30 -1 17 -3 30 -4 30 -3 0 -6 16 -16
64 -3 19 -8 37 -10 41 -2 3 -6 17 -9 31 -7 38 -52 178 -77 244 -13 33 -24 65
-25 70 -1 6 -17 42 -35 80 -18 39 -32 73 -31 78 1 4 -2 7 -6 7 -5 0 -9 6 -9
13 0 7 -25 57 -56 111 -31 55 -57 103 -57 107 0 5 -4 9 -10 9 -5 0 -10 5 -10
10 0 14 -79 134 -91 138 -5 2 -9 8 -9 14 0 6 -10 22 -22 37 -13 15 -34 43 -48
61 -130 177 -385 419 -595 566 -38 26 -73 52 -76 57 -4 5 -12 6 -18 3 -6 -4
-11 -3 -11 3 0 6 -17 20 -37 31 -44 23 -76 43 -83 50 -3 3 -11 6 -19 8 -8 2
-27 12 -43 24 -16 11 -34 21 -41 22 -7 2 -50 21 -97 43 -47 22 -105 48 -130
58 -25 9 -54 21 -65 25 -76 31 -340 107 -399 115 -15 3 -37 7 -48 11 -23 7
-60 12 -130 18 -25 2 -50 6 -55 8 -4 3 -20 4 -35 3 -16 -1 -28 1 -28 4 0 3
-18 6 -40 6 -22 1 -40 -3 -40 -8 0 -4 -6 -5 -12 0 -19 12 -308 11 -301 -1 4
-5 1 -6 -7 -1 -13 8 -78 14 -84 8z"/>
</g>
</svg>
